<mxfile host="app.diagrams.net" modified="2024-03-21T07:11:06.404Z" agent="Mozilla/5.0 (Windows NT 10.0; Win64; x64) AppleWebKit/537.36 (KHTML, like Gecko) Chrome/86.0.4240.75 Safari/537.36" version="21.6.5" etag="nC0NaO3_IO4BgfAm4l_1" type="github">
  <diagram name="第 1 页" id="L6vRDPwqud9oqX1cV5XM">
    <mxGraphModel>
      <root>
        <mxCell id="0" />
        <mxCell id="1" parent="0" />
      </root>
    </mxGraphModel>
  </diagram>
</mxfile>
